0
SECTION
2
HEADER
9
$INSUNITS
70
4
9
$ACADVER
1
AC1014
9
$HANDSEED
5
FFFF
0
ENDSEC
0
SECTION
2
TABLES
0
TABLE
2
VPORT
5
8
100
AcDbSymbolTable
0
ENDTAB
0
TABLE
2
LTYPE
5
5
100
AcDbSymbolTable
0
LTYPE
5
14
100
AcDbSymbolTableRecord
100
AcDbLinetypeTableRecord
2
BYBLOCK
70
0
0
LTYPE
5
15
100
AcDbSymbolTableRecord
100
AcDbLinetypeTableRecord
2
BYLAYER
70
0
0
ENDTAB
0
TABLE
2
LAYER
5
2
100
AcDbSymbolTable
70
2
0
LAYER
5
50
100
AcDbSymbolTableRecord
100
AcDbLayerTableRecord
2
0
70
0
6
CONTINUOUS
0
ENDTAB
0
TABLE
2
STYLE
5
3
100
AcDbSymbolTable
70
1
0
STYLE
5
11
100
AcDbSymbolTableRecord
100
AcDbTextStyleTableRecord
2
STANDARD
70
0
0
ENDTAB
0
TABLE
2
VIEW
5
6
100
AcDbSymbolTable
70
0
0
ENDTAB
0
TABLE
2
UCS
5
7
100
AcDbSymbolTable
70
0
0
ENDTAB
0
TABLE
2
APPID
5
9
100
AcDbSymbolTable
70
2
0
APPID
5
12
100
AcDbSymbolTableRecord
100
AcDbRegAppTableRecord
2
ACAD
70
0
0
ENDTAB
0
TABLE
2
DIMSTYLE
5
A
100
AcDbSymbolTable
70
1
0
ENDTAB
0
TABLE
2
BLOCK_RECORD
5
1
100
AcDbSymbolTable
70
1
0
BLOCK_RECORD
5
1F
100
AcDbSymbolTableRecord
100
AcDbBlockTableRecord
2
*MODEL_SPACE
0
BLOCK_RECORD
5
1B
100
AcDbSymbolTableRecord
100
AcDbBlockTableRecord
2
*PAPER_SPACE
0
ENDTAB
0
ENDSEC
0
SECTION
2
BLOCKS
0
BLOCK
5
20
100
AcDbEntity
100
AcDbBlockBegin
2
*MODEL_SPACE
0
ENDBLK
5
21
100
AcDbEntity
100
AcDbBlockEnd
0
BLOCK
5
1C
100
AcDbEntity
100
AcDbBlockBegin
2
*PAPER_SPACE
0
ENDBLK
5
1D
100
AcDbEntity
100
AcDbBlockEnd
0
ENDSEC
0
SECTION
2
ENTITIES
0
LWPOLYLINE
5
100
100
AcDbEntity
8
0
100
AcDbPolyline
90
42
70
1
43
0.0
10
4.9999999999999991
20
0
10
265
20
0
42
0.41421356237309387
10
270
20
4.9999999999999911
10
270
20
59.639572141472456
10
263.49964169574451
20
59.639572141472442
42
-0.41421356237305601
10
262.49964169574451
20
60.63957214147247
10
262.49964169574451
20
107.63932239952618
42
-0.41421356237305862
10
263.49964169574446
20
108.63932239952618
10
270
20
108.63932239952616
10
270
20
152
42
0.41421356237309398
10
265
20
157
10
250.10649572178605
20
157
42
0.19891523498609695
10
244.8031363473697
20
154.8032423427363
10
240
20
150
10
224.99973758080571
20
149.99983448931539
10
224.99973758080571
20
146.285482422717
42
0.41421356237308982
10
225.99973758080574
20
145.285482422717
10
228.99973758080569
20
145.285482422717
42
-0.41421356237308982
10
229.99973758080571
20
144.285482422717
10
229.9997375808058
20
116.28548242271704
42
-0.41421356237308982
10
228.99973758080577
20
115.28548242271704
10
194.02973758080577
20
115.285482422717
42
-0.414213562373069
10
193.02973758080572
20
116.285482422717
10
193.02973758080572
20
144.285482422717
42
-0.414213562373069
10
194.02973758080574
20
145.285482422717
10
212.99973758080569
20
145.285482422717
42
0.41421356237308982
10
213.99973758080569
20
146.285482422717
10
213.99973758080569
20
149.99983448931539
10
127.00000124371753
20
150.00030925452825
42
0.41421516071806508
10
125.99999578662958
20
149.00030925454314
10
125.99999578662958
20
124.00031471164597
42
-0.41421356237309503
10
124.99999578662958
20
123.00031471164598
10
108.99999578662957
20
123.00031471164598
42
-0.41421356237309503
10
107.99999578662957
20
124.00031471164597
10
107.99999578662957
20
149.00031067687291
42
0.41421474412887138
10
106.99999175186466
20
150.00031067686479
10
30
20
150
10
25.19663898286305
20
154.80332225642837
42
0.19891131877864043
10
19.893359521579246
20
157.00000000000017
10
5
20
157
42
0.41421356237309337
10
-5.5511151231257827e-15
20
152
10
5.5511151231257827e-16
20
5
42
0.41421356237309559
0
CIRCLE
5
101
100
AcDbEntity
8
0
100
AcDbCircle
10
10.500240056682266
20
10.499574164204123
30
0
40
3.2000000000000002
210
0
220
0
230
1
0
CIRCLE
5
102
100
AcDbEntity
8
0
100
AcDbCircle
10
259.50024005668229
20
10.499574164204123
30
0
40
3.2000000000000002
210
0
220
0
230
1
0
CIRCLE
5
103
100
AcDbEntity
8
0
100
AcDbCircle
10
135.00024005668226
20
10.499574164204123
30
0
40
3.2000000000000002
210
0
220
0
230
1
0
CIRCLE
5
104
100
AcDbEntity
8
0
100
AcDbCircle
10
259.50024005668229
20
139.49957416420412
30
0
40
3.2000000000000002
210
0
220
0
230
1
0
CIRCLE
5
105
100
AcDbEntity
8
0
100
AcDbCircle
10
135.00024005668226
20
139.49957416420412
30
0
40
3.2000000000000002
210
0
220
0
230
1
0
CIRCLE
5
106
100
AcDbEntity
8
0
100
AcDbCircle
10
10.500240056682266
20
139.49957416420412
30
0
40
3.2000000000000002
210
0
220
0
230
1
0
CIRCLE
5
107
100
AcDbEntity
8
0
100
AcDbCircle
10
135.00010972451375
20
60.424578186828441
30
0
40
10.9
210
0
220
0
230
1
0
CIRCLE
5
108
100
AcDbEntity
8
0
100
AcDbCircle
10
160.52010972451373
20
71.254578186828454
30
0
40
10.9
210
0
220
0
230
1
0
CIRCLE
5
109
100
AcDbEntity
8
0
100
AcDbCircle
10
188.36010972451376
20
71.254578186828439
30
0
40
10.9
210
0
220
0
230
1
0
CIRCLE
5
110
100
AcDbEntity
8
0
100
AcDbCircle
10
216.2001097245136
20
71.25457818682807
30
0
40
10.9
210
0
220
0
230
1
0
CIRCLE
5
111
100
AcDbEntity
8
0
100
AcDbCircle
10
164.39010972451374
20
101.02457818682848
30
0
40
10.9
210
0
220
0
230
1
0
CIRCLE
5
112
100
AcDbEntity
8
0
100
AcDbCircle
10
138.87010972451375
20
90.194578186828409
30
0
40
10.9
210
0
220
0
230
1
0
CIRCLE
5
113
100
AcDbEntity
8
0
100
AcDbCircle
10
220.07010972451587
20
101.02457818683473
30
0
40
10.9
210
0
220
0
230
1
0
CIRCLE
5
114
100
AcDbEntity
8
0
100
AcDbCircle
10
192.2301097245136
20
101.02457818682801
30
0
40
10.9
210
0
220
0
230
1
0
CIRCLE
5
115
100
AcDbEntity
8
0
100
AcDbCircle
10
142.74010972451376
20
119.96457818682842
30
0
40
10.9
210
0
220
0
230
1
0
CIRCLE
5
116
100
AcDbEntity
8
0
100
AcDbCircle
10
178.31010972451378
20
128.69457818682844
30
0
40
10.9
210
0
220
0
230
1
0
CIRCLE
5
117
100
AcDbEntity
8
0
100
AcDbCircle
10
164.39010972451374
20
32.86457818682846
30
0
40
10.9
210
0
220
0
230
1
0
CIRCLE
5
118
100
AcDbEntity
8
0
100
AcDbCircle
10
79.810109724513751
20
90.194578186828409
30
0
40
10.9
210
0
220
0
230
1
0
CIRCLE
5
119
100
AcDbEntity
8
0
100
AcDbCircle
10
51.970109724513748
20
90.194578186828409
30
0
40
10.9
210
0
220
0
230
1
0
CIRCLE
5
120
100
AcDbEntity
8
0
100
AcDbCircle
10
105.33010972451376
20
79.364578186828425
30
0
40
10.9
210
0
220
0
230
1
0
CIRCLE
5
121
100
AcDbEntity
8
0
100
AcDbCircle
10
120.33010972451376
20
29.36457818682841
30
0
40
13.550000000000002
210
0
220
0
230
1
0
LWPOLYLINE
5
122
100
AcDbEntity
8
0
100
AcDbPolyline
90
12
70
1
43
0.0
10
17.999942858027342
20
144.99997301814651
10
103.50037250423458
20
144.99997301814651
42
-0.41421356237310542
10
104.50037250423462
20
143.99997301814651
10
104.5003725042346
20
106.50023428247005
42
-0.41421356237309503
10
103.5003725042346
20
105.50023428247005
10
64.099942858027333
20
105.50023428247005
42
-0.41421356237309503
10
63.09994285802734
20
106.50023428247005
10
63.099942858027347
20
125.99997301814651
42
0.41421356237309764
10
62.099942858027347
20
126.99997301814649
10
17.999942858027342
20
126.99997301814649
42
-0.41421356237309503
10
16.999942858027346
20
127.99997301814649
10
16.999942858027346
20
143.99997301814651
42
-0.41421356237309503
0
LWPOLYLINE
5
123
100
AcDbEntity
8
0
100
AcDbPolyline
90
8
70
1
43
0.0
10
218.00035908224106
20
14.024081916820261
10
248.00035908224103
20
14.024081916820254
42
-0.41421356237308915
10
249.00035908224106
20
13.024081916820261
10
249.00035908224106
20
8.0240819168202595
42
-0.41421356237309048
10
248.00035908224103
20
7.0240819168202604
10
218.00035908224112
20
7.0240819168202613
42
-0.414213562373069
10
217.00035908224106
20
8.0240819168202577
10
217.00035908224106
20
13.024081916820263
42
-0.414213562373069
0
LWPOLYLINE
5
124
100
AcDbEntity
8
0
100
AcDbPolyline
90
6
70
1
43
0.0
10
25.500000000000004
20
150
10
3.0000000000000027
20
150
10
3.0000000000000004
20
151
42
-0.41421356237309115
10
6.0000000000000036
20
154
10
19.63603896932106
20
154
42
-0.19891236737966711
10
22.818019484660518
20
152.68198051533946
0
LWPOLYLINE
5
125
100
AcDbEntity
8
0
100
AcDbPolyline
90
6
70
1
43
0.0
10
244.5
20
150
10
267
20
150
10
267
20
151
42
0.41421356237308815
10
264
20
154
10
250.36396103067892
20
154.00000000000003
42
0.19891236737965104
10
247.18198051533946
20
152.68198051533946
0
ENDSEC
0
SECTION
2
OBJECTS
0
DICTIONARY
5
C
100
AcDbDictionary
3
ACAD_GROUP
350
D
3
ACAD_MLINESTYLE
350
17
0
DICTIONARY
5
D
100
AcDbDictionary
0
DICTIONARY
5
1A
330
C
100
AcDbDictionary
0
DICTIONARY
5
17
100
AcDbDictionary
0
ENDSEC
0
EOF
