0
SECTION
2
HEADER
9
$INSUNITS
70
4
9
$ACADVER
1
AC1014
9
$HANDSEED
5
FFFF
0
ENDSEC
0
SECTION
2
TABLES
0
TABLE
2
VPORT
5
8
100
AcDbSymbolTable
0
ENDTAB
0
TABLE
2
LTYPE
5
5
100
AcDbSymbolTable
0
LTYPE
5
14
100
AcDbSymbolTableRecord
100
AcDbLinetypeTableRecord
2
BYBLOCK
70
0
0
LTYPE
5
15
100
AcDbSymbolTableRecord
100
AcDbLinetypeTableRecord
2
BYLAYER
70
0
0
ENDTAB
0
TABLE
2
LAYER
5
2
100
AcDbSymbolTable
70
2
0
LAYER
5
50
100
AcDbSymbolTableRecord
100
AcDbLayerTableRecord
2
0
70
0
6
CONTINUOUS
0
ENDTAB
0
TABLE
2
STYLE
5
3
100
AcDbSymbolTable
70
1
0
STYLE
5
11
100
AcDbSymbolTableRecord
100
AcDbTextStyleTableRecord
2
STANDARD
70
0
0
ENDTAB
0
TABLE
2
VIEW
5
6
100
AcDbSymbolTable
70
0
0
ENDTAB
0
TABLE
2
UCS
5
7
100
AcDbSymbolTable
70
0
0
ENDTAB
0
TABLE
2
APPID
5
9
100
AcDbSymbolTable
70
2
0
APPID
5
12
100
AcDbSymbolTableRecord
100
AcDbRegAppTableRecord
2
ACAD
70
0
0
ENDTAB
0
TABLE
2
DIMSTYLE
5
A
100
AcDbSymbolTable
70
1
0
ENDTAB
0
TABLE
2
BLOCK_RECORD
5
1
100
AcDbSymbolTable
70
1
0
BLOCK_RECORD
5
1F
100
AcDbSymbolTableRecord
100
AcDbBlockTableRecord
2
*MODEL_SPACE
0
BLOCK_RECORD
5
1B
100
AcDbSymbolTableRecord
100
AcDbBlockTableRecord
2
*PAPER_SPACE
0
ENDTAB
0
ENDSEC
0
SECTION
2
BLOCKS
0
BLOCK
5
20
100
AcDbEntity
100
AcDbBlockBegin
2
*MODEL_SPACE
0
ENDBLK
5
21
100
AcDbEntity
100
AcDbBlockEnd
0
BLOCK
5
1C
100
AcDbEntity
100
AcDbBlockBegin
2
*PAPER_SPACE
0
ENDBLK
5
1D
100
AcDbEntity
100
AcDbBlockEnd
0
ENDSEC
0
SECTION
2
ENTITIES
0
LWPOLYLINE
5
100
100
AcDbEntity
8
0
100
AcDbPolyline
90
16
70
1
43
0.0
10
4.9999999999999991
20
0
10
265
20
0
42
0.41421356237309431
10
270
20
4.9999999999999982
10
270
20
145.00001092747544
42
0.41421292225585171
10
265.00001092748738
20
150.00001092746351
10
126.99999797212705
20
150.00031252614372
42
0.41421420249062912
10
125.99999578662958
20
149.0003125261461
10
125.99999578662958
20
124.00031471164597
42
-0.41421356237309503
10
124.99999578662958
20
123.00031471164598
10
108.99999578662957
20
123.00031471164598
42
-0.41421356237309503
10
107.99999578662957
20
124.00031471164597
10
107.99999578662957
20
149.00031179764488
42
0.41421441586327429
10
106.99999287263273
20
150.00031179764065
10
4.9999854300158217
20
150.00001456994173
42
0.41421270888344269
10
0
20
145.00001456996296
10
5.5511151231257827e-16
20
5
42
0.41421356237309559
0
CIRCLE
5
101
100
AcDbEntity
8
0
100
AcDbCircle
10
10.500240056682266
20
10.499574164204123
30
0
40
3.2000000000000002
210
0
220
0
230
1
0
CIRCLE
5
102
100
AcDbEntity
8
0
100
AcDbCircle
10
259.50024005668229
20
10.499574164204123
30
0
40
3.2000000000000002
210
0
220
0
230
1
0
CIRCLE
5
103
100
AcDbEntity
8
0
100
AcDbCircle
10
135.00024005668226
20
10.499574164204123
30
0
40
3.2000000000000002
210
0
220
0
230
1
0
CIRCLE
5
104
100
AcDbEntity
8
0
100
AcDbCircle
10
259.50024005668229
20
139.49957416420412
30
0
40
3.2000000000000002
210
0
220
0
230
1
0
CIRCLE
5
105
100
AcDbEntity
8
0
100
AcDbCircle
10
135.00024005668226
20
139.49957416420412
30
0
40
3.2000000000000002
210
0
220
0
230
1
0
CIRCLE
5
106
100
AcDbEntity
8
0
100
AcDbCircle
10
10.500240056682266
20
139.49957416420412
30
0
40
3.2000000000000002
210
0
220
0
230
1
0
CIRCLE
5
107
100
AcDbEntity
8
0
100
AcDbCircle
10
135.00010972451375
20
60.424578186828441
30
0
40
10.9
210
0
220
0
230
1
0
CIRCLE
5
108
100
AcDbEntity
8
0
100
AcDbCircle
10
160.52010972451373
20
71.254578186828454
30
0
40
10.9
210
0
220
0
230
1
0
CIRCLE
5
109
100
AcDbEntity
8
0
100
AcDbCircle
10
188.36010972451376
20
71.254578186828439
30
0
40
10.9
210
0
220
0
230
1
0
CIRCLE
5
110
100
AcDbEntity
8
0
100
AcDbCircle
10
216.2001097245136
20
71.25457818682807
30
0
40
10.9
210
0
220
0
230
1
0
CIRCLE
5
111
100
AcDbEntity
8
0
100
AcDbCircle
10
164.39010972451374
20
101.02457818682848
30
0
40
10.9
210
0
220
0
230
1
0
CIRCLE
5
112
100
AcDbEntity
8
0
100
AcDbCircle
10
138.87010972451375
20
90.194578186828409
30
0
40
10.9
210
0
220
0
230
1
0
CIRCLE
5
113
100
AcDbEntity
8
0
100
AcDbCircle
10
220.07010972451587
20
101.02457818683473
30
0
40
10.9
210
0
220
0
230
1
0
CIRCLE
5
114
100
AcDbEntity
8
0
100
AcDbCircle
10
192.2301097245136
20
101.02457818682801
30
0
40
10.9
210
0
220
0
230
1
0
CIRCLE
5
115
100
AcDbEntity
8
0
100
AcDbCircle
10
142.74010972451376
20
119.96457818682842
30
0
40
10.9
210
0
220
0
230
1
0
CIRCLE
5
116
100
AcDbEntity
8
0
100
AcDbCircle
10
178.31010972451378
20
128.69457818682844
30
0
40
10.9
210
0
220
0
230
1
0
CIRCLE
5
117
100
AcDbEntity
8
0
100
AcDbCircle
10
164.39010972451374
20
32.86457818682846
30
0
40
10.9
210
0
220
0
230
1
0
CIRCLE
5
118
100
AcDbEntity
8
0
100
AcDbCircle
10
79.810109724513751
20
90.194578186828409
30
0
40
10.9
210
0
220
0
230
1
0
CIRCLE
5
119
100
AcDbEntity
8
0
100
AcDbCircle
10
51.970109724513748
20
90.194578186828409
30
0
40
10.9
210
0
220
0
230
1
0
CIRCLE
5
120
100
AcDbEntity
8
0
100
AcDbCircle
10
105.33010972451376
20
79.364578186828425
30
0
40
10.9
210
0
220
0
230
1
0
CIRCLE
5
121
100
AcDbEntity
8
0
100
AcDbCircle
10
120.33010972451376
20
29.36457818682841
30
0
40
13.550000000000002
210
0
220
0
230
1
0
LWPOLYLINE
5
122
100
AcDbEntity
8
0
100
AcDbPolyline
90
8
70
1
43
0.0
10
63.099942858027347
20
143.99997301814511
10
63.09994285802734
20
106.50023428247005
42
0.41421356237309503
10
64.099942858027333
20
105.50023428247005
10
103.5003725042346
20
105.50023428247005
42
0.41421356237309503
10
104.5003725042346
20
106.50023428247005
10
104.50037250423462
20
143.99997301814651
42
0.41421356237310542
10
103.50037250423458
20
144.99997301814651
10
64.099942858027319
20
144.99997301814511
42
0.41421356237309243
0
LWPOLYLINE
5
123
100
AcDbEntity
8
0
100
AcDbPolyline
90
8
70
1
43
0.0
10
262.49964169574451
20
107.63932239952618
10
262.49964169574451
20
60.63957214147247
42
0.41421356237305601
10
263.49964169574451
20
59.639572141472442
10
268
20
59.639572141472456
42
0.41421356237308721
10
269
20
60.639572141472449
10
269
20
107.63932239952616
42
0.41421356237310542
10
268
20
108.63932239952616
10
263.49964169574446
20
108.63932239952618
42
0.41421356237305862
0
ENDSEC
0
SECTION
2
OBJECTS
0
DICTIONARY
5
C
100
AcDbDictionary
3
ACAD_GROUP
350
D
3
ACAD_MLINESTYLE
350
17
0
DICTIONARY
5
D
100
AcDbDictionary
0
DICTIONARY
5
1A
330
C
100
AcDbDictionary
0
DICTIONARY
5
17
100
AcDbDictionary
0
ENDSEC
0
EOF
